<svg xmlns="http://www.w3.org/2000/svg" fill="none" viewBox="348.04 6.26 452.33 108.75">
    <g>
        <path d="M416.76 15.02C418.17 12.19 420.15 10.02 422.7 8.53004C425.25 7.04004 428.24 6.29004 431.66 6.29004C434.65 6.29004 437.15 6.78004 439.16 7.75004C441.17 8.72004 442.78 10.13 443.97 11.98C445.16 13.83 446.01 16.06 446.51 18.67L438.66 19.63C438.36 18.22 437.91 17.04 437.33 16.08C436.74 15.12 435.98 14.39 435.04 13.89C434.1 13.39 432.89 13.14 431.42 13.14C429.61 13.14 428.07 13.62 426.81 14.57C425.55 15.53 424.6 16.89 423.97 18.67C423.33 20.45 423.01 22.6 423.01 25.11C423.01 27.62 423.34 29.79 423.99 31.6C424.65 33.41 425.62 34.8 426.91 35.75C428.2 36.71 429.77 37.18 431.62 37.18C433.23 37.18 434.54 36.9 435.55 36.35C436.56 35.8 437.34 35.01 437.92 33.98C438.49 32.96 438.88 31.76 439.08 30.38H447.03C446.83 33.1 446.1 35.49 444.84 37.55C443.58 39.61 441.84 41.21 439.6 42.33C437.36 43.45 434.66 44.02 431.47 44.02C427.95 44.02 424.93 43.29 422.44 41.83C419.94 40.37 418.02 38.25 416.68 35.46C415.34 32.67 414.67 29.3 414.67 25.34C414.67 21.38 415.38 17.83 416.78 15L416.76 15.02Z"
              fill="black"></path>
        <path d="M461.31 7.20001H470.67L483.45 43.14H475.25L472.33 34.43L470.82 29.35L463.67 7.71001H467.9L460.8 29.35L459.34 34.43L456.37 43.14H448.42L461.31 7.20001ZM455.82 28.79H475.8V35.18H455.82V28.79Z"
              fill="black"></path>
        <path d="M487.73 7.20001H494.83L513.55 36.65L509.83 37.46V7.20001H517.28V43.14H510.28L491.56 13.95L495.18 13.14V43.14H487.73V7.20001Z"
              fill="black"></path>
        <path d="M524.32 7.20001H537.96C543.63 7.20001 547.99 8.68001 551.05 11.63C554.1 14.58 555.63 19.01 555.63 24.92C555.63 30.83 554.03 35.42 550.82 38.51C547.61 41.6 543.13 43.14 537.36 43.14H524.32V7.20001ZM527.79 36.44H537.66C541.05 36.44 543.54 35.45 545.13 33.47C546.72 31.49 547.52 28.67 547.52 25.01C547.52 21.35 546.77 18.67 545.28 16.76C543.79 14.85 541.41 13.89 538.16 13.89H527.79L532.12 7.70001V42.63L527.79 36.44Z"
              fill="black"></path>
        <path d="M561.52 7.20001H569.42V43.14H561.52V7.20001Z" fill="black"></path>
        <path d="M576.47 7.20001H590.11C595.78 7.20001 600.14 8.68001 603.2 11.63C606.25 14.58 607.78 19.01 607.78 24.92C607.78 30.83 606.18 35.42 602.97 38.51C599.76 41.6 595.28 43.14 589.51 43.14H576.47V7.20001ZM579.94 36.44H589.81C593.2 36.44 595.69 35.45 597.28 33.47C598.87 31.49 599.67 28.67 599.67 25.01C599.67 21.35 598.92 18.67 597.43 16.76C595.94 14.85 593.56 13.89 590.31 13.89H579.94L584.27 7.70001V42.63L579.94 36.44Z"
              fill="black"></path>
        <path d="M621.27 7.20001H630.63L643.41 43.14H635.21L632.29 34.43L630.78 29.35L623.63 7.71001H627.86L620.76 29.35L619.3 34.43L616.33 43.14H608.38L621.27 7.20001ZM615.78 28.79H635.76V35.18H615.78V28.79Z"
              fill="black"></path>
        <path d="M651.67 14.09H640.7V7.20001H670.65V14.1H659.63V43.14H651.68V14.09H651.67Z" fill="black"></path>
        <path d="M675.22 7.20001H700.14V13.59H678.95L683.03 7.70001V42.63L678.95 36.74H701.15L700.34 43.13H675.22V7.20001ZM678.94 21.6H699.12V27.99H678.94V21.6Z"
              fill="black"></path>
        <path d="M704.27 32.11H712.12C712.42 34.06 713.2 35.48 714.46 36.39C715.72 37.3 717.56 37.75 719.97 37.75C721.51 37.75 722.74 37.56 723.64 37.17C724.55 36.79 725.2 36.24 725.6 35.53C726 34.83 726.2 34.02 726.2 33.11C726.2 32.41 726.07 31.76 725.8 31.17C725.53 30.58 725.04 30.07 724.31 29.63C723.59 29.19 722.57 28.88 721.27 28.67L716.54 27.76C714.02 27.29 711.91 26.63 710.2 25.77C708.49 24.91 707.2 23.78 706.32 22.37C705.45 20.96 705.01 19.2 705.01 17.08C705.01 14.73 705.61 12.75 706.8 11.14C707.99 9.53001 709.66 8.31001 711.81 7.49001C713.96 6.67001 716.46 6.26001 719.31 6.26001C721.63 6.26001 723.63 6.51001 725.32 7.01001C727.01 7.51001 728.43 8.22001 729.57 9.12001C730.71 10.03 731.61 11.11 732.26 12.37C732.91 13.63 733.34 14.98 733.54 16.42L725.89 17.38C725.59 16.27 725.18 15.36 724.68 14.64C724.18 13.92 723.49 13.38 722.62 13.03C721.75 12.68 720.59 12.5 719.15 12.5C717.71 12.5 716.42 12.68 715.5 13.03C714.58 13.38 713.9 13.87 713.46 14.49C713.02 15.11 712.81 15.82 712.81 16.63C712.81 17.84 713.18 18.76 713.92 19.4C714.66 20.04 715.95 20.54 717.8 20.91L722.73 21.87C726.76 22.64 729.67 23.88 731.46 25.57C733.25 27.26 734.15 29.65 734.15 32.74C734.15 34.99 733.6 36.96 732.51 38.66C731.42 40.35 729.8 41.67 727.65 42.61C725.5 43.55 722.82 44.02 719.6 44.02C715 44.02 711.38 43.05 708.73 41.1C706.08 39.15 704.59 36.15 704.25 32.09L704.27 32.11Z"
              fill="black"></path>
        <path d="M365.94 65.05H348.04V63.57H385.39V65.05H367.49V113.88H365.94V65.05Z" fill="black"></path>
        <path d="M427.56 102.75C425.8 106.7 423.3 109.73 420.06 111.84C416.82 113.95 412.97 115.01 408.5 115.01C404.03 115.01 400.19 113.95 396.94 111.84C393.7 109.73 391.2 106.7 389.44 102.75C387.68 98.8 386.8 94.11 386.8 88.66C386.8 83.21 387.68 78.51 389.44 74.57C391.2 70.62 393.7 67.59 396.94 65.48C400.18 63.37 404.03 62.31 408.5 62.31C412.97 62.31 416.82 63.37 420.06 65.48C423.3 67.59 425.8 70.61 427.56 74.53C429.32 78.45 430.2 83.14 430.2 88.59C430.2 94.04 429.32 98.81 427.56 102.75ZM390.85 101.97C392.47 105.68 394.78 108.54 397.79 110.53C400.8 112.53 404.37 113.53 408.5 113.53C412.63 113.53 416.26 112.53 419.25 110.53C422.23 108.53 424.53 105.68 426.16 101.97C427.78 98.26 428.59 93.82 428.59 88.65C428.59 83.48 427.78 79.04 426.16 75.33C424.54 71.62 422.24 68.77 419.25 66.77C416.27 64.77 412.68 63.77 408.5 63.77C404.32 63.77 400.79 64.77 397.79 66.77C394.78 68.77 392.47 71.62 390.85 75.33C389.23 79.04 388.42 83.48 388.42 88.65C388.42 93.82 389.23 98.26 390.85 101.97Z"
              fill="black"></path>
        <path d="M441.69 94.44C441.69 100.83 443.03 105.61 445.71 108.78C448.39 111.95 452.38 113.54 457.69 113.54C463 113.54 467.05 111.96 469.7 108.78C472.35 105.61 473.68 100.83 473.68 94.44V63.58H475.23V94.23C475.23 101.14 473.76 106.33 470.83 109.8C467.89 113.28 463.51 115.01 457.69 115.01C451.87 115.01 447.48 113.28 444.55 109.83C441.61 106.38 440.15 101.17 440.15 94.22V63.57H441.7V94.43L441.69 94.44Z"
              fill="black"></path>
        <path d="M487 63.57H504.12C506.66 63.57 508.89 63.85 510.81 64.42C512.74 64.98 514.33 65.83 515.6 66.96C516.87 68.09 517.82 69.49 518.45 71.15C519.08 72.82 519.4 74.78 519.4 77.03C519.4 80.55 518.57 83.42 516.9 85.63C515.23 87.84 512.75 89.32 509.47 90.07L508.69 90.21C508.08 90.35 507.39 90.46 506.61 90.53C505.83 90.6 504.91 90.64 503.83 90.64H487.9V89.16H503.9C507.05 89.16 509.64 88.73 511.69 87.86C513.73 86.99 515.26 85.65 516.27 83.84C517.28 82.03 517.78 79.77 517.78 77.04C517.78 74.31 517.29 72 516.3 70.24C515.31 68.48 513.79 67.17 511.72 66.33C509.65 65.49 507.02 65.06 503.83 65.06H487.9L488.53 64.28V113.89H486.98V63.57H487ZM508.28 89.92L509.76 89.64L520.96 113.88H519.27L508.28 89.92Z"
              fill="black"></path>
        <path d="M530.2 63.57H531.96L564.73 112.83L564.03 113.18V63.57H565.58V113.88H563.68L530.91 64.55L531.76 64.27V113.88H530.21V63.57H530.2Z"
              fill="black"></path>
        <path d="M593.2 63.57H594.96L614.76 113.88H613L606.45 97.04L606.03 95.98L593.7 64.27H594.4L582.07 95.98L581.65 97.04L575.1 113.88H573.41L593.21 63.57H593.2ZM581.01 95.77H607.08V97.25H581.01V95.77Z"
              fill="black"></path>
        <path d="M622.58 63.57H624.48L645.55 112.9H644.7L665.84 63.57H667.67V113.88H666.19V64.27L666.97 64.41L645.83 113.88H644.42L623.28 64.41L624.06 64.27V113.88H622.58V63.57Z"
              fill="black"></path>
        <path d="M679.8 63.57H710.45V65.05H680.78L681.34 64.27V113.17L680.78 112.4H711.01L710.52 113.88H679.8V63.57ZM680.79 87.18H709.05V88.66H680.79V87.18Z"
              fill="black"></path>
        <path d="M720.18 63.57H721.94L754.71 112.83L754.01 113.18V63.57H755.56V113.88H753.66L720.89 64.55L721.74 64.27V113.88H720.19V63.57H720.18Z"
              fill="black"></path>
        <path d="M780.92 65.05H763.02V63.57H800.37V65.05H782.47V113.88H780.92V65.05Z" fill="black"></path>
    </g>
</svg>