<svg id="svg2988" xmlns="http://www.w3.org/2000/svg" viewBox="0 0 900 900"><defs><style>.cls-1,.cls-4{fill:#006747;}.cls-2,.cls-3{fill:#ffcd00;}.cls-3,.cls-4{stroke:#ffce0a;stroke-miterlimit:10;}.cls-3{stroke-width:36px;}.cls-4{stroke-width:10px;}.cls-5{fill:#ffce0a;}</style></defs><g id="layer1"><path id="path2996" class="cls-1" d="M900,450c0,248.53-201.47,450-450,450S0,698.53,0,450,201.47,0,450,0,900,201.47,900,450Z" transform="translate(0 0)"/><path id="path2998" class="cls-2" d="M450,9.38C206.65,9.38,9.37,206.65,9.37,450S206.65,890.63,450,890.63,890.62,693.35,890.62,450,693.35,9.38,450,9.38Zm0,28.12c227.82,0,412.5,184.68,412.5,412.5S677.82,862.5,450,862.5,37.5,677.82,37.5,450,222.18,37.5,450,37.5Z" transform="translate(0 0)"/><g id="g3895"><path id="path3862" class="cls-2" d="M167.54,249.45a40.1,40.1,0,0,1,5.35,3.86,16.59,16.59,0,0,1,3.37,4.08,17.6,17.6,0,0,1,.16,19.57,20.67,20.67,0,0,1-8.89,8.13,21.8,21.8,0,0,1-12.17,1.36,50.28,50.28,0,0,1-11.09-3.51,102.82,102.82,0,0,1-12.84-6.83,123.75,123.75,0,0,1-11.39-7.9,50.56,50.56,0,0,1-8.18-8.39,20,20,0,0,1-4.46-11.2,18.46,18.46,0,0,1,.44-6.18,19.37,19.37,0,0,1,2.46-5.83,19,19,0,0,1,5.19-5.58,17.22,17.22,0,0,1,6.5-3,18.5,18.5,0,0,1,7.3-.31,21,21,0,0,1,7.38,2.5L131,239.27a8.89,8.89,0,0,0-6.63-1,8.45,8.45,0,0,0-5.29,4.06q-3,4.74.24,10.15a26.81,26.81,0,0,0,6,6.64,79.7,79.7,0,0,0,10,7.31q4,2.49,8.22,4.74T152,275a17.84,17.84,0,0,0,9.16,1.11,9.48,9.48,0,0,0,6.25-4.52q4.31-6.91-5.53-13.06l-4.17-2.6-4.49,7.2-8.9-5.55,10.16-16.29,13.07,8.16h0" transform="translate(0 0)"/><path id="path3864" class="cls-2" d="M210.43,230l-19-9.2L181.07,233,193.48,250l-7,8.27-45-62.55,6.78-8,69.11,34.1L210.43,230m-48.68-23.68,13.05,17.92,6.92-8.17-20-9.75" transform="translate(0 0)"/><path id="path3866" class="cls-2" d="M243.36,198.85l-30.75-19.72-7.69,6.81,23.32,26.31-8,7.11-49.59-56,16.7-14.81a21,21,0,0,1,6.89-4.17,18.27,18.27,0,0,1,7.34-1.14,16.11,16.11,0,0,1,7.23,2.1,22.07,22.07,0,0,1,6.49,5.14,22.65,22.65,0,0,1,5.55,10.29,15,15,0,0,1-1.58,10.34l32.38,20.38-8.27,7.32m-35.93-41.38a9.16,9.16,0,0,0-6.59-3.4,9.78,9.78,0,0,0-7,2.74l-8.27,7.33,12.51,14.12,8.27-7.33c2.34-2.07,3.6-4.24,3.79-6.49s-.72-4.68-2.74-7" transform="translate(0 0)"/><path id="path3868" class="cls-2" d="M271.27,133.8q14,21.54,9.53,34.39a11.36,11.36,0,0,1-2.47,4.8,20.89,20.89,0,0,1-4.45,3.81l-17.42,11.29-40.68-62.74,16-10.38a32.54,32.54,0,0,1,6.63-3.51,12.52,12.52,0,0,1,5.15-.68,18.27,18.27,0,0,1,8.27,2.49,32.09,32.09,0,0,1,8.21,6.52q2.9,3,5.83,6.73a76.4,76.4,0,0,1,5.38,7.28m-8.5,6.17a116.1,116.1,0,0,0-6.9-9.62,29.94,29.94,0,0,0-5.62-5.8q-6.28-5-12.28-1.08l-7.49,4.85,29.27,45.14,7.49-4.86a9.14,9.14,0,0,0,3-3,10.62,10.62,0,0,0,1.44-3.73,11.22,11.22,0,0,0,0-4,20.66,20.66,0,0,0-1.13-4.2c-1.11-2.12-2.27-4.33-3.5-6.63s-2.68-4.74-4.22-7.12" transform="translate(0 0)"/><path id="path3870" class="cls-2" d="M298.92,161.65,267.72,93.7,299.66,79,304,88.56l-22.21,10.2,7.87,17.14,14.1-6.47,4.29,9.33L294,125.23l10.29,22.42,24.85-11.42,4.38,9.54-34.59,15.88" transform="translate(0 0)"/><path id="path3872" class="cls-2" d="M371.52,134.27,335.35,92.59l14,48.12-10.29,3L318.18,71.89l10.29-3,32.24,37.36L348.19,63.17l10.29-3L379.34,132l-7.82,2.28" transform="translate(0 0)"/></g><g id="g4000"><path id="path3916" class="cls-2" d="M606.31,141.17a22.11,22.11,0,0,1-4.95,7.22,20,20,0,0,1-6.8,4.47,22.07,22.07,0,0,1-7.9,1.69,19.2,19.2,0,0,1-8-1.66,20,20,0,0,1-7.34-5.24,19.61,19.61,0,0,1-4-7.33,23.49,23.49,0,0,1-.81-8.5,26.71,26.71,0,0,1,2.17-8.67l9.62,4.17a20.19,20.19,0,0,0-1.35,4.52,16.4,16.4,0,0,0,.1,4.54,11.05,11.05,0,0,0,1.82,4,9.7,9.7,0,0,0,4,2.93,10.05,10.05,0,0,0,8.09-.14,12.21,12.21,0,0,0,6-6,11.67,11.67,0,0,0,1-5.76,16.33,16.33,0,0,0-2.26-6.57c-.19-.49-.26-.72-.19-.69s0-.33-.35-.88-1.07-1.64-2.23-3.28-2.81-4.46-5.26-8.36a22,22,0,0,1-3.47-9.4,19.61,19.61,0,0,1,1.63-9.39,19.23,19.23,0,0,1,4.31-6.29,19.58,19.58,0,0,1,6.17-4.14A19.14,19.14,0,0,1,603.54,81,18,18,0,0,1,611,82.52a18.27,18.27,0,0,1,6.19,4.26,17.31,17.31,0,0,1,3.83,6,18.36,18.36,0,0,1,1.25,7.23,20.61,20.61,0,0,1-1.57,7.84l-9.42-4.08a9,9,0,0,0,0-6.8,8.36,8.36,0,0,0-4.6-4.54,8.65,8.65,0,0,0-6.71-.23,8.12,8.12,0,0,0-4.79,4.61,7.46,7.46,0,0,0-.53,4.88,19.06,19.06,0,0,0,3.43,6.11q7.46,10,9.39,17.92a23.23,23.23,0,0,1-1.2,15.42" transform="translate(0 0)"/><path id="path3918" class="cls-2" d="M659,120.78,625,176l-9.22-5.68,34-55.2L638.15,108l5.21-8.45,32.4,20-5.21,8.46L659,120.78" transform="translate(0 0)"/><path id="path3920" class="cls-2" d="M668.8,209.31l9.1-19L665.58,180l-16.88,12.5-8.3-7,62.32-45.34,8,6.74L677,216.19l-8.21-6.88m23.43-48.81-17.86,13.14,8.21,6.89,9.65-20" transform="translate(0 0)"/><path id="path3922" class="cls-2" d="M744.74,194.76l-48.4,43.15-7.21-8.08,48.4-43.15-9.06-10.16,7.41-6.61,25.33,28.4-7.41,6.61-9.06-10.16" transform="translate(0 0)"/><path id="path3924" class="cls-2" d="M711.58,256.32,773.9,215l19.43,29.3-8.75,5.8-13.5-20.37-15.72,10.42,8.57,12.93-8.56,5.67-8.57-12.93-20.56,13.64,15.11,22.78-8.74,5.8-21-31.72" transform="translate(0 0)"/></g></g><circle class="cls-3" cx="450" cy="448.88" r="294.82"/><path class="cls-4" d="M523.94,712.64l-6.53-.94A45.32,45.32,0,0,0,527.78,690c4.24-25-13.38-48.36-39.29-52.09l-187.91-27c-25.91-3.73-50.43,13.57-54.67,38.58A43.49,43.49,0,0,0,248.6,673l-6.53-.94c-19.43-2.79-37.82,10.19-41,28.94s10,36.27,29.47,39.07l281.87,40.53c19.42,2.79,37.82-10.19,41-28.93S543.38,715.43,523.94,712.64Z" transform="translate(0 0)"/><path class="cls-5" d="M522.87,781.15a37.6,37.6,0,0,1-10.54,0L230.46,740.58a35.58,35.58,0,0,1-23.58-13.76A33.3,33.3,0,0,1,200.53,701a35.09,35.09,0,0,1,14.61-22.85,37.4,37.4,0,0,1,27-6.48l5.64.81a43.61,43.61,0,0,1-2.42-23.08A46.68,46.68,0,0,1,264.78,619a49.67,49.67,0,0,1,35.88-8.61l187.91,27c26.2,3.77,44,27.39,39.75,52.65a45.33,45.33,0,0,1-9.94,21.3l5.64.81a35.58,35.58,0,0,1,23.58,13.76,33.3,33.3,0,0,1,6.34,25.86,35,35,0,0,1-14.6,22.85A37.36,37.36,0,0,1,522.87,781.15ZM231.79,672.55a36.37,36.37,0,0,0-16,6.32,34.19,34.19,0,0,0-14.21,22.24,32.49,32.49,0,0,0,6.17,25.18,34.53,34.53,0,0,0,22.85,13.34l281.87,40.53a36.24,36.24,0,0,0,26.17-6.29,34.13,34.13,0,0,0,14.21-22.24,32.38,32.38,0,0,0-6.17-25.17,34.45,34.45,0,0,0-22.84-13.34l-7.43-1.07.54-.65a44.57,44.57,0,0,0,10.28-21.51c4.19-24.73-13.23-47.85-38.84-51.53l-187.91-27a48.54,48.54,0,0,0-35,8.42,45.68,45.68,0,0,0-19,29.76,42.85,42.85,0,0,0,2.66,23.37l.3.77L242,672.58A36.69,36.69,0,0,0,231.79,672.55Z" transform="translate(0 0)"/><path class="cls-4" d="M290.73,367c19.52,2.81,41.19-8.91,52.61-16.35a44.88,44.88,0,0,0,16.13,5.39h0c25.09,3.6,56.08-10.52,76.11-21.82-11.85,59.84-91.4,89-92.28,89.3a12,12,0,0,0-2.26,1.07c-66.78,40.52-77.26,125.9-78,169.22l259.25,37.29c7.65-36.71,31.47-110,51.18-159l-80.66,56.92a12.35,12.35,0,0,1-8.87,2.13,11.8,11.8,0,0,1-7.74-4.52,11.23,11.23,0,0,1,2.72-16l111.3-78.55a415.61,415.61,0,0,0,14.47-43.69L504.68,459a12.36,12.36,0,0,1-8.87,2.13,11.74,11.74,0,0,1-7.74-4.51,11.23,11.23,0,0,1,2.72-16l121.15-85.5a324.17,324.17,0,0,0,4.25-36.49L516.56,388.9a12.34,12.34,0,0,1-8.87,2.12,11.74,11.74,0,0,1-7.74-4.51,11.24,11.24,0,0,1,2.72-16l113.62-80.19a265.35,265.35,0,0,0-5.08-42.23l-63.47,44.79a12.29,12.29,0,0,1-8.87,2.12,11.74,11.74,0,0,1-7.74-4.51,11.24,11.24,0,0,1,2.72-16l71.31-50.32A232.35,232.35,0,0,0,557.32,139c-24.55-27.84-45.67-41.87-46.55-42.45a12.25,12.25,0,0,0-16.46,2.91l-40.6,54.64L420.26,87.35a12.06,12.06,0,0,0-22.47,3.41l-18.31,108L260.42,297.32a11.41,11.41,0,0,0-4.21,8.58C255.18,352.17,274.42,364.67,290.73,367Z" transform="translate(0 0)"/><rect class="cls-1" x="97.31" y="375.6" width="686.02" height="157"/><path class="cls-2" d="M70.05,454q0-34.46,10.31-47.88t24.93-13.43a29.4,29.4,0,0,1,21.32,8.39q8.64,8.4,9.34,21.47H118.86a13.14,13.14,0,0,0-4-9.63,14.17,14.17,0,0,0-10-3.62q-7,0-12.33,8.57T87.14,454q0,28.8,5.38,36.93t12.24,7.78a14.13,14.13,0,0,0,10-3.63,13.12,13.12,0,0,0,4-9.63H136q-.7,13.08-9.34,21.47a29.37,29.37,0,0,1-21.32,8.4q-14.62,0-24.93-13.43T70.05,454Z" transform="translate(0 0)"/><path class="cls-2" d="M217.19,513H200.1V459.46H167.85V513H150.93V394.61h16.92v48.24H200.1V394.61h17.09Z" transform="translate(0 0)"/><path class="cls-2" d="M295.25,513H235.16V394.61h55.51v16.61H252.08v29.86h24.49v16.26H252.08v39.05h43.17Z" transform="translate(0 0)"/><path class="cls-2" d="M378.07,479.78a38.14,38.14,0,0,1-8.63,24.65q-8.64,10.69-23.79,10.69-13.92,0-23.53-10.87a38,38,0,0,1-9.6-26.06h16.21q0,9.38,4.67,14.84a14.91,14.91,0,0,0,11.89,5.48,15.29,15.29,0,0,0,11.64-5.39,17.45,17.45,0,0,0,4.75-12.63q-.18-5.83-4.31-12.28t-15.25-13.52q-12.69-8.13-18.5-16.17t-5.82-15.11a30.05,30.05,0,0,1,8.11-21.64q8.28-8.92,21.15-9.1,13.56,0,22.29,8.92a29.84,29.84,0,0,1,8.72,21.65H360.8q.18-6.9-4.32-10.78c-3-2.59-6.14-3.77-9.42-3.54a11.83,11.83,0,0,0-9,4.33,14.27,14.27,0,0,0-3,9.63,12.09,12.09,0,0,0,3.18,7.25q3,3.54,13,10.6,14.08,9.54,20.35,18.73A36.42,36.42,0,0,1,378.07,479.78Z" transform="translate(0 0)"/><path class="cls-2" d="M458.25,479.78a38.09,38.09,0,0,1-8.64,24.65q-8.62,10.69-23.79,10.69-13.92,0-23.52-10.87a38,38,0,0,1-9.6-26.06h16.21q0,9.38,4.67,14.84a14.9,14.9,0,0,0,11.89,5.48,15.25,15.25,0,0,0,11.63-5.39,17.46,17.46,0,0,0,4.76-12.63q-.18-5.83-4.32-12.28T422.3,454.69q-12.69-8.13-18.5-16.17T398,423.41a30,30,0,0,1,8.11-21.64q8.28-8.92,21.14-9.1,13.57,0,22.3,8.92a29.84,29.84,0,0,1,8.72,21.65H441c.11-4.6-1.32-8.19-4.32-10.78a12.8,12.8,0,0,0-9.43-3.54,11.82,11.82,0,0,0-9,4.33,14.17,14.17,0,0,0-3,9.63,12.08,12.08,0,0,0,3.17,7.25q3,3.54,13,10.6,14.1,9.54,20.36,18.73A36.5,36.5,0,0,1,458.25,479.78Z" transform="translate(0 0)"/><path class="cls-2" d="M512.34,454q0-34.46,10.31-47.88t24.94-13.43a29.44,29.44,0,0,1,21.32,8.39q8.63,8.4,9.34,21.47H561.16a13.15,13.15,0,0,0-4.06-9.63,14.13,14.13,0,0,0-10-3.62q-7,0-12.34,8.57T529.44,454q0,28.8,5.37,36.93t12.25,7.78a14.09,14.09,0,0,0,10-3.63,13.13,13.13,0,0,0,4.06-9.63h17.09q-.71,13.08-9.34,21.47a29.4,29.4,0,0,1-21.32,8.4q-14.64,0-24.94-13.43T512.34,454Z" transform="translate(0 0)"/><path class="cls-2" d="M655.61,513h-60.1V394.61h16.92V496.39h43.18Z" transform="translate(0 0)"/><path class="cls-2" d="M739,477.66q0,12.9-4.58,20.85a33.52,33.52,0,0,1-12.07,11.93,31.08,31.08,0,0,1-16.12,4.68,33,33,0,0,1-16.65-4.59,32.1,32.1,0,0,1-12.25-12q-4.59-8.13-4.58-20.85V394.61h16.91v85.17q0,8.48,4.58,13.61a15.34,15.34,0,0,0,12,5.12,14.13,14.13,0,0,0,11.28-5.21q4.39-5.22,4.4-13.52V394.61H739Z" transform="translate(0 0)"/><path class="cls-2" d="M819.13,479.78Q819,496,809.79,504.52T786.71,513H752.87V394.61h33.84q13.92,0,22.2,8.75T817,426.42q.16,18-12.69,26.15Q819,459.64,819.13,479.78Zm-16.39.18a19.74,19.74,0,0,0-4.58-13.08,15.23,15.23,0,0,0-11.81-5.65H769.44v36.93h17.09A16.32,16.32,0,0,0,798,492.68,18,18,0,0,0,802.74,480Zm-2.29-53.54a17.13,17.13,0,0,0-4-11.22,11.66,11.66,0,0,0-9.08-4.33h-17.8V443.2h17.8c3.64,0,6.76-1.61,9.34-4.86A17.75,17.75,0,0,0,800.45,426.42Z" transform="translate(0 0)"/><rect class="cls-2" x="196.26" y="366" width="477.86" height="9.48"/><rect class="cls-2" x="191.75" y="532.27" width="477.86" height="9.48"/></svg>