<svg id="svg2988" xmlns="http://www.w3.org/2000/svg" viewBox="0 0 900 900"><defs><style>.cls-1{fill:#006747;}.cls-2,.cls-3,.cls-4{fill:#ffcd00;}.cls-3{stroke:#ffce0a;stroke-miterlimit:10;stroke-width:36px;}.cls-4{font-size:188.37px;font-family:HighwayGothicWide, Highway Gothic Wide;}.cls-5{letter-spacing:-0.09em;}</style></defs><g id="layer1"><path id="path2996" class="cls-1" d="M900,450c0,248.53-201.47,450-450,450S0,698.53,0,450,201.47,0,450,0,900,201.47,900,450Z" transform="translate(0 0)"/><path id="path2998" class="cls-2" d="M450,9.38C206.65,9.38,9.37,206.65,9.37,450S206.65,890.63,450,890.63,890.62,693.35,890.62,450,693.35,9.38,450,9.38Zm0,28.12c227.82,0,412.5,184.68,412.5,412.5S677.82,862.5,450,862.5,37.5,677.82,37.5,450,222.18,37.5,450,37.5Z" transform="translate(0 0)"/><g id="g3895"><path id="path3862" class="cls-2" d="M167.54,249.45a40.1,40.1,0,0,1,5.35,3.86,16.59,16.59,0,0,1,3.37,4.08,17.6,17.6,0,0,1,.16,19.57,20.67,20.67,0,0,1-8.89,8.13,21.8,21.8,0,0,1-12.17,1.36,50.28,50.28,0,0,1-11.09-3.51,102.82,102.82,0,0,1-12.84-6.83,123.75,123.75,0,0,1-11.39-7.9,50.56,50.56,0,0,1-8.18-8.39,20,20,0,0,1-4.46-11.2,18.46,18.46,0,0,1,.44-6.18,19.37,19.37,0,0,1,2.46-5.83,19,19,0,0,1,5.19-5.58,17.22,17.22,0,0,1,6.5-3,18.5,18.5,0,0,1,7.3-.31,21,21,0,0,1,7.38,2.5L131,239.27a8.89,8.89,0,0,0-6.63-1,8.45,8.45,0,0,0-5.29,4.06q-3,4.74.24,10.15a26.81,26.81,0,0,0,6,6.64,79.7,79.7,0,0,0,10,7.31q4,2.49,8.22,4.74T152,275a17.84,17.84,0,0,0,9.16,1.11,9.48,9.48,0,0,0,6.25-4.52q4.31-6.91-5.53-13.06l-4.17-2.6-4.49,7.2-8.9-5.55,10.16-16.29,13.07,8.16h0" transform="translate(0 0)"/><path id="path3864" class="cls-2" d="M210.43,230l-19-9.2L181.07,233,193.48,250l-7,8.27-45-62.55,6.78-8,69.11,34.1L210.43,230m-48.68-23.68,13.05,17.92,6.92-8.17-20-9.75" transform="translate(0 0)"/><path id="path3866" class="cls-2" d="M243.36,198.85l-30.75-19.72-7.69,6.81,23.32,26.31-8,7.11-49.59-56,16.7-14.81a21,21,0,0,1,6.89-4.17,18.27,18.27,0,0,1,7.34-1.14,16.11,16.11,0,0,1,7.23,2.1,22.07,22.07,0,0,1,6.49,5.14,22.65,22.65,0,0,1,5.55,10.29,15,15,0,0,1-1.58,10.34l32.38,20.38-8.27,7.32m-35.93-41.38a9.16,9.16,0,0,0-6.59-3.4,9.78,9.78,0,0,0-7,2.74l-8.27,7.33,12.51,14.12,8.27-7.33c2.34-2.07,3.6-4.24,3.79-6.49s-.72-4.68-2.74-7" transform="translate(0 0)"/><path id="path3868" class="cls-2" d="M271.27,133.8q14,21.54,9.53,34.39a11.36,11.36,0,0,1-2.47,4.8,20.89,20.89,0,0,1-4.45,3.81l-17.42,11.29-40.68-62.74,16-10.38a32.54,32.54,0,0,1,6.63-3.51,12.52,12.52,0,0,1,5.15-.68,18.27,18.27,0,0,1,8.27,2.49,32.09,32.09,0,0,1,8.21,6.52q2.9,3,5.83,6.73a76.4,76.4,0,0,1,5.38,7.28m-8.5,6.17a116.1,116.1,0,0,0-6.9-9.62,29.94,29.94,0,0,0-5.62-5.8q-6.28-5-12.28-1.08l-7.49,4.85,29.27,45.14,7.49-4.86a9.14,9.14,0,0,0,3-3,10.62,10.62,0,0,0,1.44-3.73,11.22,11.22,0,0,0,0-4,20.66,20.66,0,0,0-1.13-4.2c-1.11-2.12-2.27-4.33-3.5-6.63s-2.68-4.74-4.22-7.12" transform="translate(0 0)"/><path id="path3870" class="cls-2" d="M298.92,161.65,267.72,93.7,299.66,79,304,88.56l-22.21,10.2,7.87,17.14,14.1-6.47,4.29,9.33L294,125.23l10.29,22.42,24.85-11.42,4.38,9.54-34.59,15.88" transform="translate(0 0)"/><path id="path3872" class="cls-2" d="M371.52,134.27,335.35,92.59l14,48.12-10.29,3L318.18,71.89l10.29-3,32.24,37.36L348.19,63.17l10.29-3L379.34,132l-7.82,2.28" transform="translate(0 0)"/></g><g id="g4000"><path id="path3916" class="cls-2" d="M606.31,141.17a22.11,22.11,0,0,1-4.95,7.22,20,20,0,0,1-6.8,4.47,22.07,22.07,0,0,1-7.9,1.69,19.2,19.2,0,0,1-8-1.66,20,20,0,0,1-7.34-5.24,19.61,19.61,0,0,1-4-7.33,23.49,23.49,0,0,1-.81-8.5,26.71,26.71,0,0,1,2.17-8.67l9.62,4.17a20.19,20.19,0,0,0-1.35,4.52,16.4,16.4,0,0,0,.1,4.54,11.05,11.05,0,0,0,1.82,4,9.7,9.7,0,0,0,4,2.93,10.05,10.05,0,0,0,8.09-.14,12.21,12.21,0,0,0,6-6,11.67,11.67,0,0,0,1-5.76,16.33,16.33,0,0,0-2.26-6.57c-.19-.49-.26-.72-.19-.69s0-.33-.35-.88-1.07-1.64-2.23-3.28-2.81-4.46-5.26-8.36a22,22,0,0,1-3.47-9.4,19.61,19.61,0,0,1,1.63-9.39,19.23,19.23,0,0,1,4.31-6.29,19.58,19.58,0,0,1,6.17-4.14A19.14,19.14,0,0,1,603.54,81,18,18,0,0,1,611,82.52a18.27,18.27,0,0,1,6.19,4.26,17.31,17.31,0,0,1,3.83,6,18.36,18.36,0,0,1,1.25,7.23,20.61,20.61,0,0,1-1.57,7.84l-9.42-4.08a9,9,0,0,0,0-6.8,8.36,8.36,0,0,0-4.6-4.54,8.65,8.65,0,0,0-6.71-.23,8.12,8.12,0,0,0-4.79,4.61,7.46,7.46,0,0,0-.53,4.88,19.06,19.06,0,0,0,3.43,6.11q7.46,10,9.39,17.92a23.23,23.23,0,0,1-1.2,15.42" transform="translate(0 0)"/><path id="path3918" class="cls-2" d="M659,120.78,625,176l-9.22-5.68,34-55.2L638.15,108l5.21-8.45,32.4,20-5.21,8.46L659,120.78" transform="translate(0 0)"/><path id="path3920" class="cls-2" d="M668.8,209.31l9.1-19L665.58,180l-16.88,12.5-8.3-7,62.32-45.34,8,6.74L677,216.19l-8.21-6.88m23.43-48.81-17.86,13.14,8.21,6.89,9.65-20" transform="translate(0 0)"/><path id="path3922" class="cls-2" d="M744.74,194.76l-48.4,43.15-7.21-8.08,48.4-43.15-9.06-10.16,7.41-6.61,25.33,28.4-7.41,6.61-9.06-10.16" transform="translate(0 0)"/><path id="path3924" class="cls-2" d="M711.58,256.32,773.9,215l19.43,29.3-8.75,5.8-13.5-20.37-15.72,10.42,8.57,12.93-8.56,5.67-8.57-12.93-20.56,13.64,15.11,22.78-8.74,5.8-21-31.72" transform="translate(0 0)"/></g></g><circle class="cls-3" cx="450" cy="448.88" r="294.82"/><path class="cls-1" d="M578.14,684.51l-13.79-2c7.28-7.66,30.85-36.7,8.53-72.29-25.82-41.17-71.95-160-32.31-229.64l2.28.33a17.77,17.77,0,0,0,20.38-15.34l.32-2.24A17.77,17.77,0,0,0,548.24,343l-2.86-.41c28.73-19.77,49.24-50.4,54.42-86.86,10.06-70.94-41.71-136.95-115.62-147.44s-142,38.52-152.07,109.47c-5.17,36.45,6,71.58,28.1,98.56l-5.17-.73c-10.29-1.46-20.54,5.25-21.94,15.12l-.31,2.23c-1.4,9.87,6.57,19.17,16.86,20.63l4.6.65c18.73,77.88-58.64,179.23-94.9,211.6-31.33,28-16.77,62.42-11.91,71.8l-16.13-2.29c-10.28-1.46-20.53,5.25-21.93,15.12l-5.7,40.21c-1.4,9.87,6.57,19.17,16.86,20.63l1.55.22L217,747.23l344.5,48.88,5.07-35.75c11.64,1.65,19.76-5.36,21.16-15.23l5.7-40.21A17.77,17.77,0,0,0,578.14,684.51Z" transform="translate(0 0)"/><path class="cls-2" d="M565.77,801.76l-354.4-50.28,5.1-36a25.73,25.73,0,0,1-12.59-8.2,22.09,22.09,0,0,1-5.15-17.36l5.7-40.21c1.76-12.37,14.39-21.25,27.59-19.37l7.25,1c-5.79-15.71-10.77-44.75,16.75-69.32,31-27.69,109.74-126.39,94.1-203.4L349,358.5a25.61,25.61,0,0,1-16-8.92,22.05,22.05,0,0,1-5.15-17.36l.31-2.23c1.48-10.42,10.68-18.36,21.43-19.48A130.47,130.47,0,0,1,327.16,217c5.06-35.68,24.28-67.15,54.12-88.63s66.57-30.35,103.6-25.09,69.9,24.05,92.53,52.91,32.4,64.51,27.34,100.19a130.57,130.57,0,0,1-48.16,84.05,22.41,22.41,0,0,1,7.71,6.59,23.08,23.08,0,0,1,4.2,17l-.32,2.23a22.78,22.78,0,0,1-24.87,19.73C506.85,455.67,555,572.4,577.11,607.62c19.61,31.25,6.74,57.76-3.18,71.25l4.91.69a22.77,22.77,0,0,1,19.56,26.06l-5.7,40.21a22.31,22.31,0,0,1-21.8,19.76ZM222.67,743l334.6,47.46,5.07-35.74,4.95.7c4.21.6,7.91-.21,10.7-2.32a13,13,0,0,0,4.81-8.66l5.7-40.21a13.11,13.11,0,0,0-2.34-9.69,13,13,0,0,0-8.72-5.07L554,686.14l6.68-7c7-7.35,28.21-33.83,7.92-66.18C555,591.2,537,550.08,527.3,507.21c-8.35-37.08-13.57-89.56,8.93-129l1.68-3,5.64.8a12.76,12.76,0,0,0,14.73-11.1l.32-2.23a13.16,13.16,0,0,0-2.35-9.69,13,13,0,0,0-8.72-5.06L532,345.73l10.56-7.27C571.46,318.55,590,288.92,594.84,255c4.68-32.95-4.31-65.84-25.3-92.6s-51.6-44.3-86.07-49.19-68.68,3.39-96.35,23.3-45.39,49-50.06,81.92c-4.81,33.91,4.79,67.54,27,94.7l8.12,9.92-17.87-2.54c-7.69-1.09-15.3,4-16.28,10.87l-.31,2.24a12.26,12.26,0,0,0,2.94,9.57,15.58,15.58,0,0,0,9.67,5.4l8,1.13.8,3.3c10.62,44.19-9,93.15-27.32,126.44-21.19,38.5-50,73-69.12,90.06C234.2,595,247.21,626.3,251.88,635.3l4.47,8.61-25.74-3.65c-7.69-1.09-15.3,4-16.28,10.87l-5.7,40.22a12.26,12.26,0,0,0,2.94,9.57,15.58,15.58,0,0,0,9.67,5.4l6.5.92Z" transform="translate(0 0)"/><rect class="cls-2" x="196.26" y="366" width="477.86" height="9.48"/><rect class="cls-2" x="153.12" y="532.6" width="516.49" height="8.15"/><rect class="cls-1" x="97.31" y="375.6" width="686.02" height="157"/><text class="cls-4" transform="translate(61.27 515.69) scale(0.92 1)"><tspan class="cls-5">P</tspan><tspan x="109.25" y="0">ASSERS</tspan></text></svg>