<?xml version="1.0" standalone="no"?>
<!DOCTYPE svg PUBLIC "-//W3C//DTD SVG 20010904//EN"
 "http://www.w3.org/TR/2001/REC-SVG-20010904/DTD/svg10.dtd">
<svg version="1.0" xmlns="http://www.w3.org/2000/svg"
 width="128.000000pt" height="128.000000pt" viewBox="0 0 128.000000 128.000000"
 preserveAspectRatio="xMidYMid meet">
<metadata>
Created by potrace 1.14, written by Peter Selinger 2001-2017
</metadata>
<g transform="translate(0.000000,128.000000) scale(0.100000,-0.100000)"
fill="#000000" stroke="none">
<path d="M570 1260 c-12 -9 -21 -29 -22 -52 -2 -21 -6 -38 -9 -38 -9 0 -23
-50 -20 -71 2 -14 -21 -27 -59 -33 -20 -4 -122 -61 -144 -81 -14 -13 -26 -21
-26 -18 0 3 -11 -7 -25 -23 -14 -16 -25 -32 -25 -36 0 -5 -7 -8 -16 -8 -8 0
-12 -4 -9 -10 3 -5 1 -10 -5 -10 -6 0 -9 -4 -5 -9 3 -6 -1 -13 -9 -18 -11 -6
-45 -70 -50 -93 -1 -3 -5 -11 -9 -18 -8 -12 -18 -58 -20 -94 -1 -10 -4 -18 -8
-18 -3 0 -5 -33 -3 -72 3 -64 9 -113 14 -113 1 0 3 -11 6 -24 6 -31 61 -147
83 -173 40 -48 89 -98 98 -98 5 0 15 -9 23 -20 8 -11 22 -20 32 -20 10 0 18
-4 18 -8 0 -9 70 -37 83 -34 4 1 7 -3 7 -8 0 -6 14 -10 30 -10 17 0 30 -4 30
-8 0 -12 20 -14 117 -15 45 0 88 5 95 10 13 11 77 28 91 25 4 -1 7 3 7 8 0 6
7 10 15 10 22 0 119 65 149 100 14 17 26 28 26 23 1 -4 8 4 16 20 8 15 19 27
23 27 5 0 12 11 15 25 4 14 11 25 17 25 6 0 7 4 4 10 -3 5 -1 10 4 10 6 0 11
9 11 20 0 11 5 20 12 20 6 0 9 3 5 6 -3 3 1 23 8 44 7 21 11 41 8 44 -4 3 -2
6 4 6 12 0 18 174 7 192 -4 7 -9 25 -11 41 -2 16 -14 51 -28 78 -13 27 -21 49
-17 49 4 0 2 4 -3 8 -6 4 -21 24 -35 44 -14 21 -28 38 -32 38 -5 0 -8 7 -8 15
0 8 -5 15 -11 15 -7 0 -18 8 -25 18 -16 20 -19 76 -4 67 5 -3 7 0 4 9 -3 8 -2
21 2 28 5 7 9 18 10 23 14 87 15 83 -16 94 -17 5 -31 8 -31 5 -1 -2 -2 -10 -3
-16 0 -7 -9 -14 -19 -16 -16 -3 -17 -1 -9 15 15 27 4 39 -48 54 -25 7 -50 16
-56 21 -17 13 -34 -15 -36 -56 -1 -20 -5 -39 -10 -42 -5 -3 -7 0 -6 7 2 6 -11
16 -29 21 -32 8 -35 20 -13 53 16 25 4 40 -30 37 -22 -2 -30 0 -22 6 8 5 -6 8
-38 8 -28 -1 -59 -8 -70 -16z"/>
</g>
</svg>
